<svg xmlns="http://www.w3.org/2000/svg" width="150" height="48" viewBox="0 0 150 48">
  <defs>
    <clipPath id="pill-clip">
      <rect x="0" y="0" width="150" height="48" rx="24" />
    </clipPath>
    <linearGradient id="shimmer-grad" x1="0" y1="0" x2="1" y2="0">
      <stop offset="0%" stop-color="rgb(63, 185, 80)" stop-opacity="0" />
      <stop offset="50%" stop-color="rgb(63, 185, 80)" stop-opacity="0.2" />
      <stop offset="100%" stop-color="rgb(63, 185, 80)" stop-opacity="0" />
    </linearGradient>
  </defs>

  <rect x="0" y="0" width="150" height="48" rx="24" fill="#1D2528" />

  
    <g clip-path="url(#pill-clip)">
      <g transform="translate(0, 0)">
        <g>
          <animateTransform
            attributeName="transform"
            type="translate"
            from="-60 0"
            to="220 0"
            dur="3s"
            repeatCount="indefinite"
          />
          <rect
            x="0"
            y="-10"
            width="50"
            height="80"
            fill="url(#shimmer-grad)"
            transform="rotate(-20)"
          />
        </g>
      </g>
    </g>

  <mask id="satori_om-id"><rect x="0" y="0" width="150" height="48" fill="#fff"/></mask><mask id="satori_om-id-0"><rect x="0" y="0" width="150" height="48" fill="#fff"/></mask><clipPath id="satori_cp-id-0-0"><rect x="35" y="16" width="16" height="16"/></clipPath><mask id="satori_om-id-0-0"><rect x="35" y="16" width="16" height="16" fill="#fff"/></mask><image x="35" y="16" width="16" height="16" href="data:image/svg+xml;utf8,%3Csvg  fill=%22%23c9d1d9%22 xmlns=%22http://www.w3.org/2000/svg%22 width=%2216%22 height=%2216%22 viewBox=%220 0 16 16%22%3E%3Cpath d=%22M0 4a2 2 0 0 1 2-2h12a2 2 0 0 1 2 2v8a2 2 0 0 1-2 2H2a2 2 0 0 1-2-2zm2-1a1 1 0 0 0-1 1v.217l7 4.2 7-4.2V4a1 1 0 0 0-1-1zm13 2.383-4.708 2.825L15 11.105zm-.034 6.876-5.64-3.471L8 9.583l-1.326-.795-5.64 3.47A1 1 0 0 0 2 13h12a1 1 0 0 0 .966-.741M1 11.105l4.708-2.897L1 5.383z%22%3E%3C/path%3E%3C/svg%3E" preserveAspectRatio="none" clip-path="url(#satori_cp-id-0-0)" mask="url(#satori_om-id-0-0)"/><mask id="satori_om-id-0-0-0"><rect x="35" y="16" width="0" height="16" fill="#fff"/></mask><g  ><path fill="#c9d1d9" d="M63.3 28L58.0 28L58.0 19.6L63.3 19.6L63.3 20.5L59.0 20.5L59.0 23.3L62.9 23.3L62.9 24.2L59.0 24.2L59.0 27.1L63.3 27.1L63.3 28ZM65.6 28L64.6 28L64.6 22.0L65.5 22.0L65.6 22.7L65.6 22.7Q65.8 22.4 66.1 22.1Q66.4 21.9 66.9 21.9L66.9 21.9Q67.3 21.9 67.7 22.1Q68.0 22.3 68.1 22.7L68.1 22.7L68.2 22.7Q68.3 22.4 68.7 22.1Q69.0 21.9 69.5 21.9L69.5 21.9Q70.2 21.9 70.5 22.4Q70.9 22.8 70.9 23.6L70.9 23.6L70.9 28L69.9 28L69.9 23.8Q69.9 23.3 69.7 23.1Q69.6 22.8 69.2 22.8L69.2 22.8Q68.8 22.8 68.5 23.1Q68.3 23.4 68.3 24.0L68.3 24.0L68.3 28L67.3 28L67.3 23.8Q67.3 23.3 67.1 23.1Q66.9 22.8 66.6 22.8L66.6 22.8Q66.2 22.8 65.9 23.1Q65.6 23.4 65.6 24.0L65.6 24.0L65.6 28ZM74.5 28.1L74.5 28.1Q73.8 28.1 73.3 27.9Q72.9 27.6 72.6 27.2Q72.4 26.8 72.4 26.3L72.4 26.3Q72.4 25.4 73.1 24.9Q73.7 24.5 74.8 24.5L74.8 24.5L76.5 24.5L76.5 24.3Q76.5 22.8 75.0 22.8L75.0 22.8Q74.5 22.8 74.1 23.0Q73.7 23.3 73.6 23.8L73.6 23.8L72.6 23.8Q72.6 23.2 73.0 22.8Q73.3 22.4 73.8 22.1Q74.4 21.9 75.0 21.9L75.0 21.9Q76.3 21.9 76.9 22.6Q77.5 23.2 77.5 24.3L77.5 24.3L77.5 28L76.6 28L76.5 27.1L76.5 27.1Q76.2 27.5 75.8 27.8Q75.3 28.1 74.5 28.1ZM74.7 27.3L74.7 27.3Q75.3 27.3 75.7 27.0Q76.1 26.7 76.3 26.2Q76.5 25.8 76.5 25.3L76.5 25.3L74.9 25.3Q74.1 25.3 73.8 25.5Q73.5 25.8 73.5 26.3L73.5 26.3Q73.5 26.7 73.8 27.0Q74.1 27.3 74.7 27.3ZM82.1 21.0L82.1 21.0Q81.8 21.0 81.5 20.8Q81.3 20.5 81.3 20.2L81.3 20.2Q81.3 19.8 81.5 19.6Q81.8 19.4 82.1 19.4L82.1 19.4Q82.5 19.4 82.7 19.6Q83.0 19.8 83.0 20.2L83.0 20.2Q83.0 20.5 82.7 20.8Q82.5 21.0 82.1 21.0ZM84.6 28L79.8 28L79.8 27.1L81.7 27.1L81.7 23.2Q81.7 22.9 81.4 22.9L81.4 22.9L80.0 22.9L80.0 22.0L81.6 22.0Q82.7 22.0 82.7 23.1L82.7 23.1L82.7 27.1L84.6 27.1L84.6 28ZM91.8 28L86.7 28L86.7 27.1L88.7 27.1L88.7 20.5Q88.7 20.2 88.4 20.2L88.4 20.2L86.9 20.2L86.9 19.4L88.7 19.4Q89.2 19.4 89.5 19.6Q89.7 19.9 89.7 20.4L89.7 20.4L89.7 27.1L91.8 27.1L91.8 28Z M101.6 28L100.6 28L100.6 22.0L101.5 22.0L101.6 22.7L101.6 22.7Q101.8 22.4 102.1 22.1Q102.4 21.9 102.9 21.9L102.9 21.9Q103.3 21.9 103.7 22.1Q104.0 22.3 104.1 22.7L104.1 22.7L104.2 22.7Q104.3 22.4 104.7 22.1Q105.0 21.9 105.5 21.9L105.5 21.9Q106.2 21.9 106.5 22.4Q106.9 22.8 106.9 23.6L106.9 23.6L106.9 28L105.9 28L105.9 23.8Q105.9 23.3 105.7 23.1Q105.6 22.8 105.2 22.8L105.2 22.8Q104.8 22.8 104.5 23.1Q104.3 23.4 104.3 24.0L104.3 24.0L104.3 28L103.3 28L103.3 23.8Q103.3 23.3 103.1 23.1Q102.9 22.8 102.6 22.8L102.6 22.8Q102.2 22.8 101.9 23.1Q101.6 23.4 101.6 24.0L101.6 24.0L101.6 28ZM111.1 28.1L111.1 28.1Q110.2 28.1 109.6 27.8Q108.9 27.4 108.6 26.7Q108.2 26.0 108.2 25.0L108.2 25.0Q108.2 24.1 108.6 23.4Q108.9 22.7 109.6 22.3Q110.2 21.9 111.1 21.9L111.1 21.9Q111.9 21.9 112.6 22.3Q113.2 22.7 113.5 23.3Q113.8 24.0 113.8 24.7L113.8 24.7Q113.8 24.8 113.8 25.0Q113.8 25.1 113.8 25.3L113.8 25.3L109.2 25.3Q109.2 25.9 109.5 26.4Q109.8 26.8 110.2 27.0Q110.6 27.2 111.1 27.2L111.1 27.2Q111.7 27.2 112.1 26.9Q112.5 26.7 112.7 26.2L112.7 26.2L113.7 26.2Q113.4 27.0 112.8 27.6Q112.2 28.1 111.1 28.1ZM111.1 22.8L111.1 22.8Q110.4 22.8 109.8 23.2Q109.3 23.6 109.2 24.4L109.2 24.4L112.8 24.4Q112.8 23.7 112.3 23.2Q111.8 22.8 111.1 22.8Z "/></g>
</svg>