<svg xmlns="http://www.w3.org/2000/svg" width="180" height="68" viewBox="0 0 180 68">
  <defs>
    <clipPath id="pill-clip">
      <rect x="15" y="10" width="150" height="48" rx="24" />
    </clipPath>
    <linearGradient id="shimmer-grad" x1="0" y1="0" x2="1" y2="0">
      <stop offset="0%" stop-color="rgb(63, 185, 80)" stop-opacity="0" />
      <stop offset="50%" stop-color="rgb(63, 185, 80)" stop-opacity="0.2" />
      <stop offset="100%" stop-color="rgb(63, 185, 80)" stop-opacity="0" />
    </linearGradient>
  </defs>

  <rect x="15" y="10" width="150" height="48" rx="24" fill="#1D2528" />

  
    <g clip-path="url(#pill-clip)">
      <g transform="translate(15, 10)">
        <g>
          <animateTransform
            attributeName="transform"
            type="translate"
            from="-60 0"
            to="220 0"
            dur="3s"
            repeatCount="indefinite"
          />
          <rect
            x="0"
            y="-10"
            width="50"
            height="80"
            fill="url(#shimmer-grad)"
            transform="rotate(-20)"
          />
        </g>
      </g>
    </g>

  <mask id="satori_om-id"><rect x="0" y="0" width="180" height="68" fill="#fff"/></mask><mask id="satori_om-id-0"><rect x="15" y="10" width="150" height="48" fill="#fff"/></mask><clipPath id="satori_cp-id-0-0"><rect x="50" y="26" width="16" height="16"/></clipPath><mask id="satori_om-id-0-0"><rect x="50" y="26" width="16" height="16" fill="#fff"/></mask><image x="50" y="26" width="16" height="16" href="data:image/svg+xml;utf8,%3Csvg  fill=%22%23c9d1d9%22 xmlns=%22http://www.w3.org/2000/svg%22 width=%2216%22 height=%2216%22 viewBox=%220 0 16 16%22%3E%3Cpath d=%22M0 4a2 2 0 0 1 2-2h12a2 2 0 0 1 2 2v8a2 2 0 0 1-2 2H2a2 2 0 0 1-2-2zm2-1a1 1 0 0 0-1 1v.217l7 4.2 7-4.2V4a1 1 0 0 0-1-1zm13 2.383-4.708 2.825L15 11.105zm-.034 6.876-5.64-3.471L8 9.583l-1.326-.795-5.64 3.47A1 1 0 0 0 2 13h12a1 1 0 0 0 .966-.741M1 11.105l4.708-2.897L1 5.383z%22%3E%3C/path%3E%3C/svg%3E" preserveAspectRatio="none" clip-path="url(#satori_cp-id-0-0)" mask="url(#satori_om-id-0-0)"/><mask id="satori_om-id-0-0-0"><rect x="50" y="26" width="0" height="16" fill="#fff"/></mask><g  ><path fill="#c9d1d9" d="M78.3 38L73.0 38L73.0 29.6L78.3 29.6L78.3 30.5L74.0 30.5L74.0 33.3L77.9 33.3L77.9 34.2L74.0 34.2L74.0 37.1L78.3 37.1L78.3 38ZM80.6 38L79.6 38L79.6 32.0L80.5 32.0L80.6 32.7L80.6 32.7Q80.8 32.4 81.1 32.1Q81.4 31.9 81.9 31.9L81.9 31.9Q82.3 31.9 82.7 32.1Q83.0 32.3 83.1 32.7L83.1 32.7L83.2 32.7Q83.3 32.4 83.7 32.1Q84.0 31.9 84.5 31.9L84.5 31.9Q85.2 31.9 85.5 32.4Q85.9 32.8 85.9 33.6L85.9 33.6L85.9 38L84.9 38L84.9 33.8Q84.9 33.3 84.7 33.1Q84.6 32.8 84.2 32.8L84.2 32.8Q83.8 32.8 83.5 33.1Q83.3 33.4 83.3 34.0L83.3 34.0L83.3 38L82.3 38L82.3 33.8Q82.3 33.3 82.1 33.1Q81.9 32.8 81.6 32.8L81.6 32.8Q81.2 32.8 80.9 33.1Q80.6 33.4 80.6 34.0L80.6 34.0L80.6 38ZM89.5 38.1L89.5 38.1Q88.8 38.1 88.3 37.9Q87.9 37.6 87.6 37.2Q87.4 36.8 87.4 36.3L87.4 36.3Q87.4 35.4 88.1 34.9Q88.7 34.5 89.8 34.5L89.8 34.5L91.5 34.5L91.5 34.3Q91.5 32.8 90.0 32.8L90.0 32.8Q89.5 32.8 89.1 33.0Q88.7 33.3 88.6 33.8L88.6 33.8L87.6 33.8Q87.6 33.2 88.0 32.8Q88.3 32.4 88.8 32.1Q89.4 31.9 90.0 31.9L90.0 31.9Q91.3 31.9 91.9 32.6Q92.5 33.2 92.5 34.3L92.5 34.3L92.5 38L91.6 38L91.5 37.1L91.5 37.1Q91.2 37.5 90.8 37.8Q90.3 38.1 89.5 38.1ZM89.7 37.3L89.7 37.3Q90.3 37.3 90.7 37.0Q91.1 36.7 91.3 36.2Q91.5 35.8 91.5 35.3L91.5 35.3L89.9 35.3Q89.1 35.3 88.8 35.5Q88.5 35.8 88.5 36.3L88.5 36.3Q88.5 36.7 88.8 37.0Q89.1 37.3 89.7 37.3ZM97.1 31.0L97.1 31.0Q96.8 31.0 96.5 30.8Q96.3 30.5 96.3 30.2L96.3 30.2Q96.3 29.8 96.5 29.6Q96.8 29.4 97.1 29.4L97.1 29.4Q97.5 29.4 97.7 29.6Q98.0 29.8 98.0 30.2L98.0 30.2Q98.0 30.5 97.7 30.8Q97.5 31.0 97.1 31.0ZM99.6 38L94.8 38L94.8 37.1L96.7 37.1L96.7 33.2Q96.7 32.9 96.4 32.9L96.4 32.9L95.0 32.9L95.0 32.0L96.6 32.0Q97.7 32.0 97.7 33.1L97.7 33.1L97.7 37.1L99.6 37.1L99.6 38ZM106.8 38L101.7 38L101.7 37.1L103.7 37.1L103.7 30.5Q103.7 30.2 103.4 30.2L103.4 30.2L101.9 30.2L101.9 29.4L103.7 29.4Q104.2 29.4 104.5 29.6Q104.7 29.9 104.7 30.4L104.7 30.4L104.7 37.1L106.8 37.1L106.8 38Z M116.6 38L115.6 38L115.6 32.0L116.5 32.0L116.6 32.7L116.6 32.7Q116.8 32.4 117.1 32.1Q117.4 31.9 117.9 31.9L117.9 31.9Q118.3 31.9 118.7 32.1Q119.0 32.3 119.1 32.7L119.1 32.7L119.2 32.7Q119.3 32.4 119.7 32.1Q120.0 31.9 120.5 31.9L120.5 31.9Q121.2 31.9 121.5 32.4Q121.9 32.8 121.9 33.6L121.9 33.6L121.9 38L120.9 38L120.9 33.8Q120.9 33.3 120.7 33.1Q120.6 32.8 120.2 32.8L120.2 32.8Q119.8 32.8 119.5 33.1Q119.3 33.4 119.3 34.0L119.3 34.0L119.3 38L118.3 38L118.3 33.8Q118.3 33.3 118.1 33.1Q117.9 32.8 117.6 32.8L117.6 32.8Q117.2 32.8 116.9 33.1Q116.6 33.4 116.6 34.0L116.6 34.0L116.6 38ZM126.1 38.1L126.1 38.1Q125.2 38.1 124.6 37.8Q123.9 37.4 123.6 36.7Q123.2 36.0 123.2 35.0L123.2 35.0Q123.2 34.1 123.6 33.4Q123.9 32.7 124.6 32.3Q125.2 31.9 126.1 31.9L126.1 31.9Q126.9 31.9 127.6 32.3Q128.2 32.7 128.5 33.3Q128.8 34.0 128.8 34.7L128.8 34.7Q128.8 34.8 128.8 35.0Q128.8 35.1 128.8 35.3L128.8 35.3L124.2 35.3Q124.2 35.9 124.5 36.4Q124.8 36.8 125.2 37.0Q125.6 37.2 126.1 37.2L126.1 37.2Q126.7 37.2 127.1 36.9Q127.5 36.7 127.7 36.2L127.7 36.2L128.7 36.2Q128.4 37.0 127.8 37.6Q127.2 38.1 126.1 38.1ZM126.1 32.8L126.1 32.8Q125.4 32.8 124.8 33.2Q124.3 33.6 124.2 34.4L124.2 34.4L127.8 34.4Q127.8 33.7 127.3 33.2Q126.8 32.8 126.1 32.8Z "/></g>
</svg>