<svg xmlns="http://www.w3.org/2000/svg" width="150" height="48" viewBox="0 0 150 48">
  <defs>
    <clipPath id="pill-clip">
      <rect x="0" y="0" width="150" height="48" rx="24" />
    </clipPath>
    <linearGradient id="shimmer-grad" x1="0" y1="0" x2="1" y2="0">
      <stop offset="0%" stop-color="rgb(63, 185, 80)" stop-opacity="0" />
      <stop offset="50%" stop-color="rgb(63, 185, 80)" stop-opacity="0.2" />
      <stop offset="100%" stop-color="rgb(63, 185, 80)" stop-opacity="0" />
    </linearGradient>
  </defs>

  <rect x="0" y="0" width="150" height="48" rx="24" fill="#1D2528" />

  
    <g clip-path="url(#pill-clip)">
      <g transform="translate(0, 0)">
        <g>
          <animateTransform
            attributeName="transform"
            type="translate"
            from="-60 0"
            to="220 0"
            dur="3s"
            repeatCount="indefinite"
          />
          <rect
            x="0"
            y="-10"
            width="50"
            height="80"
            fill="url(#shimmer-grad)"
            transform="rotate(-20)"
          />
        </g>
      </g>
    </g>

  <mask id="satori_om-id"><rect x="0" y="0" width="150" height="48" fill="#fff"/></mask><mask id="satori_om-id-0"><rect x="0" y="0" width="150" height="48" fill="#fff"/></mask><clipPath id="satori_cp-id-0-0"><rect x="32" y="16" width="16" height="16"/></clipPath><mask id="satori_om-id-0-0"><rect x="32" y="16" width="16" height="16" fill="#fff"/></mask><image x="32" y="16" width="16" height="16" href="data:image/svg+xml;utf8,%3Csvg  fill=%22%23c9d1d9%22 xmlns=%22http://www.w3.org/2000/svg%22 width=%2216%22 height=%2216%22 viewBox=%220 0 16 16%22%3E%3Cpath d=%22M0 8a8 8 0 1 1 16 0A8 8 0 0 1 0 8m7.5-6.923c-.67.204-1.335.82-1.887 1.855A8 8 0 0 0 5.145 4H7.5zM4.09 4a9.3 9.3 0 0 1 .64-1.539 7 7 0 0 1 .597-.933A7.03 7.03 0 0 0 2.255 4zm-.582 3.5c.03-.877.138-1.718.312-2.5H1.674a7 7 0 0 0-.656 2.5zM4.847 5a12.5 12.5 0 0 0-.338 2.5H7.5V5zM8.5 5v2.5h2.99a12.5 12.5 0 0 0-.337-2.5zM4.51 8.5a12.5 12.5 0 0 0 .337 2.5H7.5V8.5zm3.99 0V11h2.653c.187-.765.306-1.608.338-2.5zM5.145 12q.208.58.468 1.068c.552 1.035 1.218 1.65 1.887 1.855V12zm.182 2.472a7 7 0 0 1-.597-.933A9.3 9.3 0 0 1 4.09 12H2.255a7 7 0 0 0 3.072 2.472M3.82 11a13.7 13.7 0 0 1-.312-2.5h-2.49c.062.89.291 1.733.656 2.5zm6.853 3.472A7 7 0 0 0 13.745 12H11.91a9.3 9.3 0 0 1-.64 1.539 7 7 0 0 1-.597.933M8.5 12v2.923c.67-.204 1.335-.82 1.887-1.855q.26-.487.468-1.068zm3.68-1h2.146c.365-.767.594-1.61.656-2.5h-2.49a13.7 13.7 0 0 1-.312 2.5m2.802-3.5a7 7 0 0 0-.656-2.5H12.18c.174.782.282 1.623.312 2.5zM11.27 2.461c.247.464.462.98.64 1.539h1.835a7 7 0 0 0-3.072-2.472c.218.284.418.598.597.933M10.855 4a8 8 0 0 0-.468-1.068C9.835 1.897 9.17 1.282 8.5 1.077V4z%22%3E%3C/path%3E%3C/svg%3E" preserveAspectRatio="none" clip-path="url(#satori_cp-id-0-0)" mask="url(#satori_om-id-0-0)"/><mask id="satori_om-id-0-0-0"><rect x="32" y="16" width="0" height="16" fill="#fff"/></mask><g  ><path fill="#c9d1d9" d="M54.9 28L53.9 28L53.9 19.6L56.7 19.6Q57.6 19.6 58.3 19.9Q58.9 20.3 59.2 20.9Q59.4 21.4 59.4 22.1L59.4 22.1Q59.4 22.8 59.2 23.4Q58.9 24.0 58.3 24.3Q57.6 24.7 56.7 24.7L56.7 24.7L54.9 24.7L54.9 28ZM54.9 20.5L54.9 23.8L56.7 23.8Q57.5 23.8 58.0 23.3Q58.4 22.9 58.4 22.1L58.4 22.1Q58.4 21.4 58.0 21.0Q57.5 20.5 56.7 20.5L56.7 20.5L54.9 20.5ZM63.8 28.1L63.8 28.1Q63.0 28.1 62.3 27.8Q61.7 27.4 61.3 26.7Q60.9 26.0 60.9 25.0L60.9 25.0Q60.9 24.1 61.3 23.4Q61.7 22.7 62.3 22.3Q63.0 21.9 63.8 21.9L63.8 21.9Q64.6 21.9 65.3 22.3Q65.9 22.7 66.3 23.4Q66.7 24.1 66.7 25.0L66.7 25.0Q66.7 26.0 66.3 26.7Q65.9 27.4 65.3 27.8Q64.6 28.1 63.8 28.1ZM63.8 27.2L63.8 27.2Q64.3 27.2 64.7 27.0Q65.2 26.7 65.4 26.2Q65.6 25.8 65.6 25.0L65.6 25.0Q65.6 24.3 65.4 23.8Q65.2 23.3 64.7 23.1Q64.3 22.9 63.8 22.9L63.8 22.9Q63.3 22.9 62.9 23.1Q62.5 23.3 62.2 23.8Q62.0 24.3 62.0 25.0L62.0 25.0Q62.0 26.1 62.5 26.7Q63.0 27.2 63.8 27.2ZM72.8 28L68.4 28L68.4 27.1L69.9 27.1L69.9 23.2Q69.9 22.9 69.6 22.9L69.6 22.9L68.6 22.9L68.6 22.0L70.0 22.0Q70.4 22.0 70.7 22.3Q70.9 22.5 70.9 22.9L70.9 22.9L70.9 23.2L70.9 23.2Q71.1 22.6 71.5 22.2Q71.9 21.9 72.6 21.9L72.6 21.9L73.7 21.9L73.7 23.0L72.5 23.0Q71.7 23.0 71.3 23.5Q70.9 23.9 70.9 24.7L70.9 24.7L70.9 27.1L72.8 27.1L72.8 28ZM80.5 28L78.8 28Q78.0 28 77.5 27.6Q77.1 27.2 77.1 26.2L77.1 26.2L77.1 22.9L75.6 22.9L75.6 22.0L76.5 22.0Q77.1 22.0 77.2 21.4L77.2 21.4L77.3 20.5L78.1 20.5L78.1 22.0L80.5 22.0L80.5 22.9L78.1 22.9L78.1 26.2Q78.1 26.7 78.3 26.9Q78.5 27.1 79.1 27.1L79.1 27.1L80.5 27.1L80.5 28ZM83.7 30.6L82.9 30.6L82.9 29.7L83.6 29.7Q84.1 29.7 84.3 29.5Q84.5 29.4 84.5 28.9L84.5 28.9L84.5 22.9L83.0 22.9L83.0 22.0L84.5 22.0L84.5 21.1Q84.5 20.2 84.9 19.8Q85.4 19.4 86.3 19.4L86.3 19.4L87.7 19.4L87.7 20.3L86.3 20.3Q85.9 20.3 85.7 20.5Q85.5 20.6 85.5 21.1L85.5 21.1L85.5 22.0L87.7 22.0L87.7 22.9L85.5 22.9L85.5 28.9Q85.5 29.8 85.0 30.2Q84.6 30.6 83.7 30.6L83.7 30.6ZM92.6 28.1L92.6 28.1Q91.8 28.1 91.1 27.8Q90.5 27.4 90.1 26.7Q89.7 26.0 89.7 25.0L89.7 25.0Q89.7 24.1 90.1 23.4Q90.5 22.7 91.1 22.3Q91.8 21.9 92.6 21.9L92.6 21.9Q93.4 21.9 94.1 22.3Q94.7 22.7 95.1 23.4Q95.5 24.1 95.5 25.0L95.5 25.0Q95.5 26.0 95.1 26.7Q94.7 27.4 94.1 27.8Q93.4 28.1 92.6 28.1ZM92.6 27.2L92.6 27.2Q93.1 27.2 93.5 27.0Q94.0 26.7 94.2 26.2Q94.4 25.8 94.4 25.0L94.4 25.0Q94.4 24.3 94.2 23.8Q94.0 23.3 93.5 23.1Q93.1 22.9 92.6 22.9L92.6 22.9Q92.1 22.9 91.7 23.1Q91.3 23.3 91.0 23.8Q90.8 24.3 90.8 25.0L90.8 25.0Q90.8 26.1 91.3 26.7Q91.8 27.2 92.6 27.2ZM102.2 28L97.1 28L97.1 27.1L99.1 27.1L99.1 20.5Q99.1 20.2 98.8 20.2L98.8 20.2L97.3 20.2L97.3 19.4L99.1 19.4Q99.6 19.4 99.9 19.6Q100.1 19.9 100.1 20.4L100.1 20.4L100.1 27.1L102.2 27.1L102.2 28ZM106.9 21.0L106.9 21.0Q106.6 21.0 106.3 20.8Q106.1 20.5 106.1 20.2L106.1 20.2Q106.1 19.8 106.3 19.6Q106.6 19.4 106.9 19.4L106.9 19.4Q107.3 19.4 107.5 19.6Q107.8 19.8 107.8 20.2L107.8 20.2Q107.8 20.5 107.5 20.8Q107.3 21.0 106.9 21.0ZM109.4 28L104.6 28L104.6 27.1L106.5 27.1L106.5 23.2Q106.5 22.9 106.2 22.9L106.2 22.9L104.8 22.9L104.8 22.0L106.4 22.0Q107.5 22.0 107.5 23.1L107.5 23.1L107.5 27.1L109.4 27.1L109.4 28ZM114.2 28.1L114.2 28.1Q113.4 28.1 112.7 27.8Q112.1 27.4 111.7 26.7Q111.3 26.0 111.3 25.0L111.3 25.0Q111.3 24.1 111.7 23.4Q112.1 22.7 112.7 22.3Q113.4 21.9 114.2 21.9L114.2 21.9Q115.0 21.9 115.7 22.3Q116.3 22.7 116.7 23.4Q117.1 24.1 117.1 25.0L117.1 25.0Q117.1 26.0 116.7 26.7Q116.3 27.4 115.7 27.8Q115.0 28.1 114.2 28.1ZM114.2 27.2L114.2 27.2Q114.7 27.2 115.1 27.0Q115.6 26.7 115.8 26.2Q116.0 25.8 116.0 25.0L116.0 25.0Q116.0 24.3 115.8 23.8Q115.6 23.3 115.1 23.1Q114.7 22.9 114.2 22.9L114.2 22.9Q113.7 22.9 113.3 23.1Q112.9 23.3 112.6 23.8Q112.4 24.3 112.4 25.0L112.4 25.0Q112.4 26.1 112.9 26.7Q113.4 27.2 114.2 27.2Z "/></g>
</svg>