<svg xmlns="http://www.w3.org/2000/svg" width="150" height="48" viewBox="0 0 150 48">
  <defs>
    <clipPath id="pill-clip">
      <rect x="0" y="0" width="150" height="48" rx="24" />
    </clipPath>
    <linearGradient id="shimmer-grad" x1="0" y1="0" x2="1" y2="0">
      <stop offset="0%" stop-color="rgb(63, 185, 80)" stop-opacity="0" />
      <stop offset="50%" stop-color="rgb(63, 185, 80)" stop-opacity="0.2" />
      <stop offset="100%" stop-color="rgb(63, 185, 80)" stop-opacity="0" />
    </linearGradient>
  </defs>

  <rect x="0" y="0" width="150" height="48" rx="24" fill="#1D2528" />

  
    <g clip-path="url(#pill-clip)">
      <g transform="translate(0, 0)">
        <g>
          <animateTransform
            attributeName="transform"
            type="translate"
            from="-60 0"
            to="220 0"
            dur="3s"
            repeatCount="indefinite"
          />
          <rect
            x="0"
            y="-10"
            width="50"
            height="80"
            fill="url(#shimmer-grad)"
            transform="rotate(-20)"
          />
        </g>
      </g>
    </g>

  <mask id="satori_om-id"><rect x="0" y="0" width="150" height="48" fill="#fff"/></mask><mask id="satori_om-id-0"><rect x="0" y="0" width="150" height="48" fill="#fff"/></mask><clipPath id="satori_cp-id-0-0"><rect x="42" y="16" width="16" height="16"/></clipPath><mask id="satori_om-id-0-0"><rect x="42" y="16" width="16" height="16" fill="#fff"/></mask><image x="42" y="16" width="16" height="16" href="data:image/svg+xml;utf8,%3Csvg  fill=%22%23c9d1d9%22 xmlns=%22http://www.w3.org/2000/svg%22 width=%2216%22 height=%2216%22 viewBox=%220 0 16 16%22%3E%3Cpath d=%22M5 4a.5.5 0 0 0 0 1h6a.5.5 0 0 0 0-1zm-.5 2.5A.5.5 0 0 1 5 6h6a.5.5 0 0 1 0 1H5a.5.5 0 0 1-.5-.5M5 8a.5.5 0 0 0 0 1h6a.5.5 0 0 0 0-1zm0 2a.5.5 0 0 0 0 1h3a.5.5 0 0 0 0-1z%22%3E%3C/path%3E%3Cpath d=%22M2 2a2 2 0 0 1 2-2h8a2 2 0 0 1 2 2v12a2 2 0 0 1-2 2H4a2 2 0 0 1-2-2zm10-1H4a1 1 0 0 0-1 1v12a1 1 0 0 0 1 1h8a1 1 0 0 0 1-1V2a1 1 0 0 0-1-1%22%3E%3C/path%3E%3C/svg%3E" preserveAspectRatio="none" clip-path="url(#satori_cp-id-0-0)" mask="url(#satori_om-id-0-0)"/><mask id="satori_om-id-0-0-0"><rect x="42" y="16" width="0" height="16" fill="#fff"/></mask><mask id="satori_om-id-0-0-1"><rect x="42" y="16" width="0" height="16" fill="#fff"/></mask><g  ><path fill="#c9d1d9" d="M66.0 28L65.0 28L65.0 19.6L67.6 19.6Q68.5 19.6 69.2 19.9Q69.8 20.2 70.1 20.8Q70.4 21.4 70.4 22.1L70.4 22.1Q70.4 22.9 70.0 23.5Q69.6 24.2 68.7 24.4L68.7 24.4L70.5 28L69.3 28L67.6 24.6L67.6 24.6L66.0 24.6L66.0 28ZM66.0 20.5L66.0 23.6L67.5 23.6Q68.5 23.6 68.9 23.2Q69.4 22.8 69.4 22.1L69.4 22.1Q69.4 21.4 69.0 20.9Q68.5 20.5 67.5 20.5L67.5 20.5L66.0 20.5ZM74.9 28.1L74.9 28.1Q74.0 28.1 73.4 27.8Q72.7 27.4 72.4 26.7Q72.0 26.0 72.0 25.0L72.0 25.0Q72.0 24.1 72.4 23.4Q72.7 22.7 73.4 22.3Q74.0 21.9 74.9 21.9L74.9 21.9Q75.7 21.9 76.4 22.3Q77.0 22.7 77.3 23.3Q77.6 24.0 77.6 24.7L77.6 24.7Q77.6 24.8 77.6 25.0Q77.6 25.1 77.6 25.3L77.6 25.3L73.0 25.3Q73.0 25.9 73.3 26.4Q73.6 26.8 74.0 27.0Q74.4 27.2 74.9 27.2L74.9 27.2Q75.5 27.2 75.9 26.9Q76.3 26.7 76.5 26.2L76.5 26.2L77.5 26.2Q77.2 27.0 76.6 27.6Q76.0 28.1 74.9 28.1ZM74.9 22.8L74.9 22.8Q74.2 22.8 73.6 23.2Q73.1 23.6 73 24.4L73 24.4L76.6 24.4Q76.6 23.7 76.1 23.2Q75.6 22.8 74.9 22.8ZM82.1 28.1L82.1 28.1Q80.9 28.1 80.2 27.6Q79.5 27.1 79.4 26.1L79.4 26.1L80.5 26.1Q80.5 26.6 81.0 26.9Q81.4 27.3 82.1 27.3L82.1 27.3Q82.8 27.3 83.1 27.0Q83.4 26.7 83.4 26.3L83.4 26.3Q83.4 25.8 83.0 25.6Q82.6 25.4 81.8 25.3L81.8 25.3Q80.9 25.2 80.3 24.8Q79.6 24.4 79.6 23.6L79.6 23.6Q79.6 22.9 80.2 22.4Q80.9 21.9 81.9 21.9L81.9 21.9Q83.0 21.9 83.6 22.4Q84.2 22.9 84.2 23.7L84.2 23.7L83.2 23.7Q83.2 23.3 82.8 23.0Q82.5 22.8 81.9 22.8L81.9 22.8Q81.3 22.8 81.0 23.0Q80.7 23.2 80.7 23.6L80.7 23.6Q80.7 23.9 81.0 24.2Q81.4 24.4 82.2 24.5L82.2 24.5Q82.8 24.6 83.3 24.7Q83.8 24.9 84.1 25.3Q84.4 25.6 84.4 26.3L84.4 26.3Q84.5 26.8 84.2 27.2Q83.8 27.7 83.3 27.9Q82.8 28.1 82.1 28.1ZM88.8 28.1L88.8 28.1Q87.7 28.1 87.1 27.5Q86.6 26.8 86.6 25.6L86.6 25.6L86.6 22.0L87.6 22.0L87.6 25.5Q87.6 26.3 88.0 26.7Q88.3 27.2 89.0 27.2L89.0 27.2Q89.8 27.2 90.2 26.7Q90.7 26.2 90.7 25.3L90.7 25.3L90.7 22.0L91.7 22.0L91.7 28L90.9 28L90.8 27.1L90.7 27.1Q90.5 27.5 90.0 27.8Q89.5 28.1 88.8 28.1ZM94.2 28L93.2 28L93.2 22.0L94.1 22.0L94.2 22.7L94.2 22.7Q94.4 22.4 94.7 22.1Q95.0 21.9 95.5 21.9L95.5 21.9Q95.9 21.9 96.3 22.1Q96.6 22.3 96.7 22.7L96.7 22.7L96.8 22.7Q96.9 22.4 97.3 22.1Q97.6 21.9 98.1 21.9L98.1 21.9Q98.8 21.9 99.1 22.4Q99.5 22.8 99.5 23.6L99.5 23.6L99.5 28L98.5 28L98.5 23.8Q98.5 23.3 98.3 23.1Q98.2 22.8 97.8 22.8L97.8 22.8Q97.4 22.8 97.1 23.1Q96.9 23.4 96.9 24.0L96.9 24.0L96.9 28L95.9 28L95.9 23.8Q95.9 23.3 95.7 23.1Q95.5 22.8 95.2 22.8L95.2 22.8Q94.8 22.8 94.5 23.1Q94.2 23.4 94.2 24.0L94.2 24.0L94.2 28ZM103.7 28.1L103.7 28.1Q102.8 28.1 102.2 27.8Q101.5 27.4 101.2 26.7Q100.8 26.0 100.8 25.0L100.8 25.0Q100.8 24.1 101.2 23.4Q101.5 22.7 102.2 22.3Q102.8 21.9 103.7 21.9L103.7 21.9Q104.5 21.9 105.2 22.3Q105.8 22.7 106.1 23.3Q106.4 24.0 106.4 24.7L106.4 24.7Q106.4 24.8 106.4 25.0Q106.4 25.1 106.4 25.3L106.4 25.3L101.8 25.3Q101.8 25.9 102.1 26.4Q102.4 26.8 102.8 27.0Q103.2 27.2 103.7 27.2L103.7 27.2Q104.3 27.2 104.7 26.9Q105.1 26.7 105.3 26.2L105.3 26.2L106.3 26.2Q106.0 27.0 105.4 27.6Q104.8 28.1 103.7 28.1ZM103.7 22.8L103.7 22.8Q103.0 22.8 102.4 23.2Q101.9 23.6 101.8 24.4L101.8 24.4L105.4 24.4Q105.4 23.7 104.9 23.2Q104.4 22.8 103.7 22.8Z "/></g>
</svg>